<?xml version="1.0" encoding="UTF-8"?>
<svg width="261px" height="115px" viewBox="0 0 261 115" version="1.1" xmlns="http://www.w3.org/2000/svg" xmlns:xlink="http://www.w3.org/1999/xlink">
    <!-- Generator: Sketch 53.2 (72643) - https://sketchapp.com -->
    <title>Artboard</title>
    <desc>Created with Sketch.</desc>
    <defs>
        <polygon id="path-1" points="0.0004 0.337 130.6374 0.337 130.6374 113.9995 0.0004 113.9995"></polygon>
        <polygon id="path-3" points="0 114.663 259.456 114.663 259.456 1 0 1"></polygon>
    </defs>
    <g id="Artboard" stroke="none" stroke-width="1" fill="none" fill-rule="evenodd">
        <g id="Group-22" transform="translate(1.000000, 0.000000)">
            <g id="Group-3" transform="translate(0.000000, 0.663000)">
                <mask id="mask-2" fill="white">
                    <use xlink:href="#path-1"></use>
                </mask>
                <g id="Clip-2"></g>
                <path d="M27.8854,0.3365 L120.4834,15.3405 L119.7254,21.7055 C119.7254,21.7055 127.4544,21.2505 127.4544,22.1595 C127.4544,23.0695 126.6964,24.2815 125.1814,24.2815 L126.3934,26.7065 C127.7574,27.0095 127.7574,26.7065 128.5154,26.7065 C129.2734,26.7065 129.7274,25.9485 129.7274,25.9485 C129.8794,26.1005 130.4854,25.6455 130.6374,25.9485 C130.6374,26.1005 130.1824,27.0095 130.1824,27.1615 C130.1824,27.6155 130.3344,27.4645 129.4244,27.7675 C128.5154,28.0705 128.8184,28.0705 128.3644,28.0705 C127.9094,28.0705 127.4544,28.6765 126.5454,28.6765 C125.4844,28.6765 125.1814,28.8285 123.8174,28.8285 C123.0594,28.8285 123.3624,28.3735 123.0594,28.0705 C121.9984,27.1615 124.1204,27.4645 125.1814,27.4645 L125.4844,27.1615 C125.4844,27.0095 126.0904,27.0095 126.5454,26.5545 C125.9394,25.3425 125.3324,24.1305 125.3324,24.1305 C123.8174,23.9785 122.3014,23.9785 121.5444,24.4335 C120.6344,25.0395 117.4524,26.4035 117.4524,28.3735 C117.4524,29.2825 112.4514,48.9845 107.1464,69.2925 C101.3874,91.4185 95.4774,113.9995 95.4774,113.9995 L73.3504,103.0885 C73.3504,103.0885 73.6534,107.9375 72.2904,109.1505 C71.0774,110.5145 70.0164,110.3625 69.4104,110.3625 C68.8044,110.3625 68.9554,109.3015 68.0464,107.6345 C67.2884,105.9675 66.8344,102.6335 65.7734,100.5115 C64.7124,98.5415 62.7424,96.7235 62.7424,98.5415 C62.7424,100.3605 62.8934,102.9365 62.8934,104.7555 C62.8934,106.5735 61.9844,108.3925 61.9844,110.6655 C61.9844,112.9395 60.9234,111.7265 60.3174,110.3625 C59.7114,108.9985 61.0754,104.3005 60.4694,104.3005 C59.8624,104.3005 58.4984,101.8755 57.8924,101.1185 C57.1344,100.3605 56.5284,98.0875 56.5284,96.5715 C56.5284,95.0565 55.0134,93.6925 54.1034,93.6925 C53.3464,93.6925 53.0434,95.5105 53.0434,96.2685 C53.0434,96.2685 53.6494,96.5715 54.1034,96.8745 C54.2554,97.0265 54.5584,96.5715 54.8614,96.8745 C55.0134,97.0265 55.4674,97.1775 55.6194,97.4805 C55.7704,97.6325 55.4674,97.7835 55.6194,98.0875 C55.7704,98.3905 56.2254,100.0575 56.5284,101.5725 C56.6804,102.1785 57.2864,102.1785 57.5894,102.6335 C58.0444,103.3915 58.1954,104.4525 58.1954,104.4525 C58.1954,104.4525 58.4984,106.4225 58.6504,107.9375 C58.8024,108.9985 58.8024,109.7565 58.8024,109.6045 C58.6504,109.4535 58.3474,109.7565 58.0444,108.9985 C57.7414,108.5445 57.2864,107.3315 57.1344,106.8775 C56.9834,106.4225 57.4384,105.6645 57.2864,105.0585 C57.1344,103.8465 56.6804,102.9365 56.6804,102.9365 C56.6804,102.6335 56.8314,102.1785 56.6804,101.7245 C56.3774,100.2085 55.9224,98.3905 55.7704,98.2385 C55.6194,98.0875 55.4674,98.5415 55.3164,98.5415 C54.8614,98.2385 55.0134,98.3905 54.7104,98.0875 C54.7104,98.0875 54.5584,97.9355 54.5584,97.7835 L54.2554,97.4805 C54.2554,97.3295 54.4074,97.3295 54.2554,97.1775 C54.1034,97.0265 53.3464,96.5715 53.3464,96.5715 C52.8914,96.5715 51.6794,96.1165 51.0724,96.1165 C50.3154,96.1165 50.0124,93.3885 50.0124,92.6315 C50.0124,91.8735 0.0004,67.0195 0.0004,67.0195 L18.0344,23.9785 L22.2784,24.4335 L6.0624,64.2915 L42.1314,82.4775 L52.1334,87.1755 L52.1334,84.9025 C52.1334,83.9925 51.2244,82.0225 50.9214,80.8105 C50.6184,79.5975 50.7694,78.3855 50.9214,77.4765 C51.0724,76.7185 51.0724,75.0515 51.2244,74.2935 C51.6794,72.7785 52.5884,71.4145 53.0434,70.0505 C53.3464,68.6865 53.9524,67.7765 54.1034,66.7155 C54.1034,65.9585 54.2554,65.0485 54.1034,64.4425 C53.9524,63.8365 53.4974,63.6845 53.3464,63.5335 C53.1944,63.3815 52.5884,64.1395 51.8304,65.9585 C51.5274,66.7155 51.2244,67.3225 50.4664,68.5345 C49.7084,69.7465 50.6184,70.0505 50.4664,70.6565 C50.1634,71.4145 50.1634,73.2325 49.8604,73.9905 C49.7084,74.1415 49.5574,74.8995 49.5574,75.0515 C49.4054,75.8095 49.2544,76.4155 48.9514,77.0215 C48.4964,78.0825 49.5574,78.6885 49.2544,79.2945 C48.9514,79.9005 49.8604,80.3555 49.5574,80.9615 C49.2544,81.5675 49.5574,82.4775 49.5574,82.3255 C49.5574,82.3255 50.0124,83.0835 50.0124,83.2355 C50.3154,83.8415 50.6184,84.5995 50.6184,84.5995 C50.6184,84.5995 51.2244,85.6595 51.0724,85.3565 C50.9214,85.5085 48.4964,85.2055 48.4964,85.2055 C48.4964,85.2055 47.5874,85.2055 47.2844,85.0535 C46.9804,84.9025 45.3134,84.1445 45.3134,84.1445 L41.9794,82.6285 L43.0404,78.8405 C43.0404,78.8405 44.7074,76.2635 43.7984,75.3545 C42.8894,74.4455 42.8894,70.9595 44.5564,69.4435 C46.2234,67.9285 47.5874,64.5945 47.5874,62.7755 C47.5874,60.9575 47.5874,57.0165 48.3444,54.7435 C49.1024,52.4705 49.7084,49.5905 50.4664,47.6205 C51.2244,45.6505 51.2244,41.5585 51.8304,41.5585 C52.4364,41.5585 52.4364,40.1945 52.4364,44.2865 L52.4364,46.4085 C52.4364,49.5905 52.1334,52.0155 52.7394,50.9545 C52.8914,50.8035 53.3464,48.3785 53.6494,46.7115 C53.9524,45.0445 54.2554,44.4375 54.4064,43.9835 L58.6504,43.9835 L58.6504,45.8015 C58.6504,45.9535 58.4984,48.8325 58.9534,49.2875 C59.1054,49.5905 58.9534,50.8035 59.5594,51.2575 C59.8624,51.4095 57.7414,54.8945 58.1954,55.1985 C58.3474,55.3495 58.3474,55.8045 58.6504,56.8655 C58.6504,57.0165 58.6504,57.7745 58.1954,59.2895 C58.1954,59.4415 57.4374,59.2895 57.2864,59.7445 C57.1344,60.1995 57.2864,60.6535 57.1344,60.8055 C57.1344,60.9575 56.9834,61.4115 57.1344,61.5635 C57.2864,61.8665 57.4374,62.3205 57.4374,62.3205 C57.4374,62.4725 57.7414,62.4725 57.8924,62.6245 C58.0444,62.9275 57.7414,63.2305 57.8924,63.5335 L57.8924,65.0485 L57.8924,65.9585 C57.7414,66.4125 57.8924,67.0195 57.8924,66.8675 C57.8924,66.8675 57.7414,67.7765 58.0444,67.7765 C58.3474,67.6255 58.3474,67.1705 58.3474,67.0195 C58.3474,66.7155 58.6504,66.5645 58.4984,66.4125 C58.4984,66.4125 58.6504,66.1095 58.6504,65.9585 L58.6504,65.3525 C58.6504,65.2005 58.8014,63.9885 58.8014,63.9885 L58.8014,63.0785 C58.9534,62.6245 58.8014,62.6245 58.8014,62.1695 C58.8014,61.7145 59.1054,61.2605 58.9534,60.9575 C58.8014,60.5025 58.6504,60.1995 58.6504,60.1995 L58.4984,59.7445 L58.0444,59.4415 L58.0444,58.8355 C58.1954,58.2295 57.8924,59.8965 58.0444,59.2895 C58.1954,58.9865 58.3474,58.2295 58.4984,57.9255 C58.8014,57.1685 58.3474,57.7745 58.4984,57.4715 C59.1054,56.4105 58.4984,57.0165 60.0144,56.1075 C61.5294,55.1985 61.3784,52.4705 61.3784,52.4705 C61.3784,52.4705 62.1364,52.3185 62.8934,52.3185 L63.3484,52.3185 C63.5004,52.3185 63.3484,52.7735 63.5004,53.3795 C63.5004,53.8345 63.8034,54.2885 63.9544,54.5915 C64.1064,55.1985 63.9544,55.3495 64.1064,55.6525 C64.1064,55.6525 63.9544,56.5625 63.9544,57.3195 C63.9544,58.3805 64.1064,58.6835 64.2574,59.1385 C64.7124,59.7445 65.3184,60.0475 65.4704,59.7445 C65.7734,58.3805 65.1674,55.3495 65.1674,55.3495 C65.1674,55.1985 65.0154,54.5915 65.0154,54.5915 C65.0154,54.4405 64.8644,53.8345 64.8644,53.3795 C64.8644,53.0765 64.7124,52.4705 64.7124,52.3185 C64.7124,52.1675 65.0154,51.2575 64.7124,51.2575 C64.4094,51.2575 64.5604,51.2575 64.1064,51.4095 C63.6514,51.5605 63.5004,52.1675 63.5004,52.1675 L63.0454,52.1675 C62.1364,52.0155 61.6814,52.3185 61.5294,52.1675 C61.3784,52.0155 61.2264,50.3485 61.2264,49.7425 C61.2264,48.6815 60.9234,47.0145 60.9234,46.8625 C60.7724,46.7115 60.4694,45.3475 60.1654,45.1955 C60.1654,45.1955 59.7114,45.0445 59.4084,45.1955 C59.1054,45.3475 58.8014,45.6505 58.8014,45.6505 L58.8014,43.8315 L54.5584,43.8315 C54.5584,43.8315 54.5584,43.2255 54.8614,40.4975 C55.1644,37.7695 55.6194,34.7385 55.6194,33.5265 L55.6194,32.9205 C55.3164,31.7075 54.5584,30.6465 54.5584,33.0715 C54.5584,35.9515 53.3464,39.4365 53.0434,40.0425 C52.7394,40.6495 54.5584,34.4355 52.4364,32.9205 C50.3154,31.4045 47.5874,32.1625 43.3434,32.1625 C38.9484,32.1625 35.4634,31.5565 34.7054,31.5565 C33.9474,31.5565 40.4644,30.9495 40.4644,30.9495 C40.4644,30.9495 47.5874,31.2525 49.2544,31.2525 C50.9214,31.2525 53.6494,31.1015 53.0434,30.3435 C52.4364,29.5855 44.2534,29.1315 43.3434,29.1315 C42.4344,29.1315 34.5534,30.1925 33.0384,30.1925 C31.5224,30.1925 28.7944,28.8285 26.9764,28.8285 C25.1574,28.8285 23.1874,27.3125 23.1874,27.3125 C23.1874,27.3125 21.6714,26.5545 22.1264,25.9485 C22.2784,25.6455 23.0354,25.4945 23.7934,25.3425 C24.0964,25.3425 24.0964,25.3425 24.7024,25.0395 C34.0994,22.6145 26.2184,24.5845 25.0064,23.8265 C23.1874,22.9175 23.6424,22.0085 24.0964,20.9475 C24.5514,19.8865 33.1894,18.5225 34.7054,18.5225 C36.2204,18.5225 39.7064,17.4615 41.5254,17.4615 C43.3434,17.4615 48.1934,16.5525 50.3154,16.5525 C52.4364,16.5525 54.4074,16.2495 55.0134,16.8555 C55.7704,17.4615 58.9534,17.4615 59.7114,17.4615 C60.0144,17.4615 62.7424,17.0075 65.1674,17.0075 L65.1674,18.8255 C64.4094,18.9775 62.8934,18.5225 62.7424,18.9775 L61.2264,19.2805 C61.3784,19.2805 60.7724,19.7355 60.7724,19.8865 C60.6204,20.6445 62.4394,19.8865 62.4394,19.8865 C62.4394,19.8865 63.6514,20.0385 63.8034,19.8865 C63.9544,19.4315 64.2574,19.8865 65.4704,19.8865 C66.0764,19.8865 66.5314,20.0385 66.8344,20.1895 L66.8344,25.0395 C66.9854,24.7365 69.2594,25.7975 69.5624,25.6455 C69.7134,25.6455 68.3494,25.6455 68.5014,26.2515 L68.1984,26.8575 C68.3494,27.4645 69.1074,27.4645 69.1074,27.6155 C69.4104,27.9185 70.7744,27.1615 71.5324,27.4645 C71.8354,27.6155 72.7444,27.4645 73.3504,27.4645 C74.7144,27.6155 77.2914,28.2215 77.4424,27.6155 C77.4424,27.6155 77.8974,27.6155 78.0494,27.4645 C78.0494,27.3125 77.7454,27.0095 77.8974,26.8575 C78.0494,26.4035 78.8064,26.2515 78.8064,26.2515 C78.8064,26.2515 79.2614,26.4035 79.8674,25.9485 C80.4734,25.6455 80.4734,26.1005 81.0804,25.9485 L81.9894,25.4945 C83.0504,25.1905 83.8084,25.6455 83.3534,25.0395 C82.8984,24.4335 83.0504,24.4335 82.2924,24.5845 C82.2924,24.5845 81.6864,25.0395 81.5344,25.0395 L80.6254,25.0395 L79.2614,25.0395 C78.0494,25.1905 77.8974,25.9485 77.1394,25.9485 C76.0784,25.9485 75.0184,26.2515 75.0184,26.2515 C75.0184,26.1005 72.4414,27.0095 72.1384,25.9485 C71.8354,25.3425 71.0774,25.6455 70.4714,25.7975 C70.1684,25.7975 70.0164,25.4945 69.8654,25.4945 C69.4104,25.4945 67.1374,24.4335 67.1374,24.8875 C67.1374,25.0395 66.9854,25.6455 66.8344,26.2515 C66.8344,26.4035 66.3794,26.7065 66.3794,26.8575 C66.2284,27.3125 65.6214,27.4645 65.4704,27.4645 C65.1674,27.6155 64.2574,27.4645 63.8034,27.4645 C63.3484,27.4645 62.8934,27.9185 62.4394,27.3125 C62.2874,27.1615 62.4394,27.1615 62.2874,26.8575 C62.2874,26.8575 62.1364,25.9485 62.1364,25.7975 C61.8334,25.6455 62.1364,25.7975 60.6204,25.4945 C60.3174,25.4945 60.1664,25.7975 58.9534,25.9485 C58.0444,25.9485 56.5284,26.4035 55.1644,26.4035 C54.5584,26.4035 53.9524,26.1005 53.3464,26.1005 C52.5884,26.1005 50.4664,26.5545 49.7084,26.5545 C48.6484,26.5545 48.3454,26.5545 47.8904,26.4035 C47.4354,26.2515 46.8294,26.1005 46.9814,25.9485 C47.2844,25.3425 48.0414,25.6455 48.9514,25.3425 C49.2544,25.1905 49.8604,25.3425 50.1634,25.3425 C50.6184,25.1905 51.0724,25.3425 51.6794,25.3425 L54.4074,25.3425 L55.7714,25.3425 C56.2254,25.3425 56.3774,24.8875 56.8314,24.8875 C57.1344,24.8875 58.8024,25.1905 58.9534,25.3425 C58.9534,25.3425 59.5594,25.3425 60.1664,25.4945 C61.0754,25.6455 61.3784,25.6455 61.6814,25.7975 C61.9844,25.3425 61.8334,25.3425 62.1364,25.3425 C62.4394,25.3425 62.4394,25.4945 62.7424,25.3425 C63.0454,25.1905 62.8934,25.4945 63.3484,25.4945 L64.2574,25.4945 C64.7124,25.4945 64.5604,25.3425 64.8644,25.3425 C65.1674,25.1905 65.6214,25.0395 65.6214,25.0395 C65.9244,25.1905 66.2284,24.8875 66.5314,24.8875 L66.5314,24.5845 L66.5314,20.1895 C66.6824,20.0385 67.4404,20.3415 67.5924,20.1895 C68.3494,20.0385 68.8044,19.5835 69.4104,19.8865 C69.8654,20.1895 70.6234,20.1895 71.3804,20.1895 C72.1384,20.1895 72.4414,20.3415 72.4414,20.1895 C72.4414,20.1895 73.1994,20.1895 73.1994,19.5835 C73.1994,18.9775 72.7444,19.4315 71.8354,18.9775 C70.9264,18.5225 70.3194,19.1285 69.7134,18.9775 C69.1074,18.8255 68.1984,18.9775 67.2884,18.9775 L66.5314,18.9775 C65.6214,18.9775 65.1674,18.8255 64.8644,18.8255 L64.8644,17.0075 C68.6524,17.1585 74.2604,17.4615 75.0184,17.4615 C76.3814,17.4615 85.4754,17.0075 85.4754,17.0075 C85.4754,17.0075 80.4734,15.3405 77.7454,16.0975 C75.0174,16.8555 68.8044,15.7945 68.8044,15.7945 L63.6514,15.7945 C59.4084,15.7945 64.8644,14.5825 64.8644,14.5825 C64.8644,14.5825 65.4704,14.7335 68.0464,14.7335 L74.7144,14.7335 C75.9274,14.7335 84.4144,15.0365 84.4144,15.0365 C84.4144,15.0365 88.2024,15.0365 89.5664,14.8855 C90.9304,14.7335 95.0224,14.7335 95.0224,14.7335 L114.1184,17.0075 C114.1184,17.0075 115.3304,18.3715 114.2694,18.8255 C113.2084,19.4315 110.4814,18.9775 109.4204,19.8865 C108.2074,20.7955 106.0864,19.8865 106.9954,21.8565 C107.9044,23.8265 110.1774,23.5235 110.7844,23.5235 C111.3904,23.5235 114.2694,24.1305 114.2694,22.9175 C114.2694,21.7055 115.9364,19.7355 115.9364,19.7355 L113.6634,28.2215 C113.6634,28.2215 111.8454,27.0095 110.6324,27.0095 C109.5714,27.0095 108.5104,29.7375 108.9654,30.4955 C109.5714,31.1015 111.3904,32.0105 111.3904,32.0105 L111.5414,33.6775 C111.5414,33.6775 100.0244,32.7685 98.3564,32.7685 C96.8414,32.7685 94.1134,34.1325 92.5974,33.5265 C91.2344,32.7685 87.8994,32.1625 86.0814,32.1625 C84.2624,32.1625 79.2614,32.4655 76.9884,31.8595 C74.7144,31.2525 73.6544,29.8895 73.6544,30.7985 C73.6544,31.8595 74.2604,32.3135 75.6244,32.3135 C76.9884,32.3135 78.8064,32.3135 79.7164,33.3745 C80.7764,34.4355 83.0504,35.4965 83.0504,34.4355 C83.0504,33.3745 88.0514,35.3445 88.8094,34.2835 C89.5664,33.3745 92.1434,35.0415 92.1434,34.1325 C92.1434,33.2235 94.4164,35.0415 95.7804,35.0415 C97.1444,35.0415 101.5394,35.3445 102.7514,35.3445 C103.9644,35.3445 102.1454,36.5575 102.9034,36.5575 C103.6614,36.5575 105.0254,37.6185 107.1464,37.6185 C109.2684,37.6185 111.5414,36.1025 110.7844,38.0725 C110.0264,40.0425 109.2684,41.8615 109.2684,41.8615 C109.2684,41.8615 108.6624,40.8005 107.2984,41.8615 C105.9344,42.9225 103.0554,43.0735 101.6914,43.0735 C100.3274,43.0735 96.5384,43.5285 95.4774,42.3165 C94.4164,41.1035 92.4464,39.7395 91.6884,40.9525 C90.9304,42.3165 88.9604,42.3165 87.5964,41.5585 C86.2324,40.9525 83.5044,39.5885 82.1404,39.5885 C80.7764,39.5885 77.5944,37.4665 76.0784,37.4665 C74.5634,37.4665 73.0474,37.6185 72.4414,37.0115 C71.8354,36.4055 70.9264,36.1025 70.1684,36.1025 C69.4104,36.1025 68.0464,35.7995 68.0464,36.5575 C68.0464,37.4665 68.9564,40.1945 68.9564,41.8615 C68.9564,43.5285 68.9564,50.1965 69.5624,49.2875 C70.1684,48.3785 70.4714,49.4395 70.4714,51.7125 C70.4714,53.9855 70.0164,55.6525 70.0164,56.7135 C70.0164,57.7745 69.2594,57.7745 69.2594,58.8355 C69.2594,59.8965 70.4714,63.2305 70.4714,63.6845 C70.4714,64.1395 72.1384,66.1095 71.2294,71.1105 C70.3194,76.2635 71.3804,75.0515 71.6834,77.7795 C71.9874,80.5075 72.2904,78.3855 72.2904,76.8695 C72.2904,75.3545 72.4414,74.1415 72.4414,71.4145 C72.4414,68.5345 72.1384,63.6845 72.7444,61.8665 C73.3504,60.0475 73.6544,62.4725 73.6544,63.0785 C73.6544,63.6845 72.5934,68.9895 73.5024,71.1105 C74.4114,73.2325 74.2604,73.5355 75.0184,75.2025 C75.7754,76.8695 75.1694,78.5365 74.2604,78.5365 C73.3504,78.5365 73.8054,80.5075 73.8054,82.4775 L73.8054,88.2365 C73.8054,89.2975 73.3504,91.1155 73.3504,91.7215 C73.3504,92.3285 71.3804,92.4795 72.5934,94.2985 C73.8054,96.1165 72.5934,96.8745 72.5934,96.8745 C72.5934,96.8745 72.2904,98.5415 74.5634,99.2995 C76.6854,100.0575 91.6884,107.0285 91.6884,107.0285 L116.0884,17.3105 L30.1584,4.1255 L22.2784,24.4335 L18.0344,23.9785 C21.3184,16.0975 24.6014,8.2175 27.8854,0.3365" id="Fill-1" fill="#FFFFFF" mask="url(#mask-2)"></path>
            </g>
            <path d="M164.5534,91.0685 C163.0984,91.0385 161.4474,91.2955 161.4474,92.7195 C161.4474,93.5835 162.0234,93.9925 162.7044,93.9925 C163.6594,93.9925 164.2654,93.3865 164.4774,92.7645 C164.5234,92.6295 164.5534,92.4775 164.5534,92.3405 L164.5534,91.0685 Z M165.8414,93.0525 C165.8414,93.6895 165.8714,94.3105 165.9624,94.8105 L164.7504,94.8105 L164.6444,93.8865 L164.5984,93.8865 C164.1894,94.4625 163.4024,94.9775 162.3564,94.9775 C160.8714,94.9775 160.1144,93.9315 160.1144,92.8715 C160.1144,91.0985 161.6894,90.1295 164.5234,90.1435 L164.5234,89.9925 C164.5234,89.3855 164.3564,88.2955 162.8564,88.2955 C162.1744,88.2955 161.4624,88.5065 160.9474,88.8405 L160.6444,87.9625 C161.2504,87.5685 162.1294,87.3105 163.0534,87.3105 C165.2964,87.3105 165.8414,88.8405 165.8414,90.3105 L165.8414,93.0525 Z" id="Fill-4" fill="#FFFFFF"></path>
            <mask id="mask-4" fill="white">
                <use xlink:href="#path-3"></use>
            </mask>
            <g id="Clip-7"></g>
            <polygon id="Fill-6" fill="#FFFFFF" mask="url(#mask-4)" points="167.994 94.811 169.327 94.811 169.327 84.053 167.994 84.053"></polygon>
            <path d="M172.1013,87.4767 L173.0713,91.2047 C173.2833,92.0227 173.4803,92.7807 173.6163,93.5387 L173.6623,93.5387 C173.8293,92.7947 174.0713,92.0077 174.3133,91.2047 L175.5103,87.4767 L176.6323,87.4767 L177.7683,91.1437 C178.0413,92.0227 178.2533,92.7947 178.4193,93.5387 L178.4653,93.5387 C178.5863,92.7947 178.7833,92.0227 179.0263,91.1597 L180.0713,87.4767 L181.3903,87.4767 L179.0263,94.8107 L177.8133,94.8107 L176.6923,91.3107 C176.4343,90.4927 176.2233,89.7647 176.0413,88.9017 L176.0103,88.9017 C175.8293,89.7807 175.6013,90.5387 175.3443,91.3257 L174.1623,94.8107 L172.9503,94.8107 L170.7383,87.4767 L172.1013,87.4767 Z" id="Fill-8" fill="#FFFFFF" mask="url(#mask-4)"></path>
            <path d="M186.528,91.0685 C185.073,91.0385 183.422,91.2955 183.422,92.7195 C183.422,93.5835 183.998,93.9925 184.679,93.9925 C185.634,93.9925 186.24,93.3865 186.452,92.7645 C186.498,92.6295 186.528,92.4775 186.528,92.3405 L186.528,91.0685 Z M187.816,93.0525 C187.816,93.6895 187.846,94.3105 187.937,94.8105 L186.725,94.8105 L186.619,93.8865 L186.573,93.8865 C186.164,94.4625 185.377,94.9775 184.331,94.9775 C182.846,94.9775 182.089,93.9315 182.089,92.8715 C182.089,91.0985 183.664,90.1295 186.498,90.1435 L186.498,89.9925 C186.498,89.3855 186.331,88.2955 184.831,88.2955 C184.149,88.2955 183.437,88.5065 182.922,88.8405 L182.619,87.9625 C183.225,87.5685 184.104,87.3105 185.028,87.3105 C187.271,87.3105 187.816,88.8405 187.816,90.3105 L187.816,93.0525 Z" id="Fill-9" fill="#FFFFFF" mask="url(#mask-4)"></path>
            <path d="M190.3327,87.4767 L191.9387,91.8107 C192.1057,92.2947 192.2877,92.8717 192.4087,93.3107 L192.4387,93.3107 C192.5757,92.8717 192.7267,92.3107 192.9087,91.7807 L194.3637,87.4767 L195.7727,87.4767 L193.7717,92.7047 C192.8177,95.2197 192.1657,96.5077 191.2567,97.2957 C190.6057,97.8717 189.9547,98.0987 189.6207,98.1597 L189.2877,97.0387 C189.6207,96.9317 190.0607,96.7197 190.4547,96.3867 C190.8177,96.0987 191.2717,95.5827 191.5757,94.9017 C191.6357,94.7647 191.6817,94.6597 191.6817,94.5827 C191.6817,94.5077 191.6507,94.4017 191.5907,94.2347 L188.8777,87.4767 L190.3327,87.4767 Z" id="Fill-10" fill="#FFFFFF" mask="url(#mask-4)"></path>
            <path d="M196.7131,93.4474 C197.1071,93.7044 197.8041,93.9774 198.4711,93.9774 C199.4411,93.9774 199.8951,93.4924 199.8951,92.8864 C199.8951,92.2504 199.5161,91.9014 198.5311,91.5384 C197.2131,91.0684 196.5921,90.3414 196.5921,89.4624 C196.5921,88.2804 197.5461,87.3104 199.1221,87.3104 C199.8641,87.3104 200.5161,87.5224 200.9251,87.7644 L200.5921,88.7344 C200.3041,88.5524 199.7741,88.3104 199.0921,88.3104 C198.3041,88.3104 197.8641,88.7644 197.8641,89.3104 C197.8641,89.9164 198.3041,90.1894 199.2581,90.5524 C200.5311,91.0384 201.1831,91.6744 201.1831,92.7644 C201.1831,94.0524 200.1831,94.9774 198.4401,94.9774 C197.6371,94.9774 196.8951,94.7644 196.3801,94.4624 L196.7131,93.4474 Z" id="Fill-11" fill="#FFFFFF" mask="url(#mask-4)"></path>
            <path d="M206.6394,87.4767 L207.6094,91.2047 C207.8214,92.0227 208.0184,92.7807 208.1544,93.5387 L208.2004,93.5387 C208.3674,92.7947 208.6094,92.0077 208.8514,91.2047 L210.0484,87.4767 L211.1704,87.4767 L212.3064,91.1437 C212.5794,92.0227 212.7914,92.7947 212.9574,93.5387 L213.0034,93.5387 C213.1244,92.7947 213.3214,92.0227 213.5644,91.1597 L214.6094,87.4767 L215.9284,87.4767 L213.5644,94.8107 L212.3514,94.8107 L211.2304,91.3107 C210.9724,90.4927 210.7614,89.7647 210.5794,88.9017 L210.5484,88.9017 C210.3674,89.7807 210.1394,90.5387 209.8824,91.3257 L208.7004,94.8107 L207.4884,94.8107 L205.2764,87.4767 L206.6394,87.4767 Z" id="Fill-12" fill="#FFFFFF" mask="url(#mask-4)"></path>
            <path d="M217.263,94.811 L218.596,94.811 L218.596,87.477 L217.263,87.477 L217.263,94.811 Z M218.748,85.416 C218.763,85.871 218.43,86.235 217.9,86.235 C217.43,86.235 217.096,85.871 217.096,85.416 C217.096,84.946 217.445,84.583 217.93,84.583 C218.43,84.583 218.748,84.946 218.748,85.416 L218.748,85.416 Z" id="Fill-13" fill="#FFFFFF" mask="url(#mask-4)"></path>
            <path d="M222.4157,85.7199 L222.4157,87.4769 L224.3247,87.4769 L224.3247,88.4919 L222.4157,88.4919 L222.4157,92.4479 C222.4157,93.3569 222.6727,93.8709 223.4157,93.8709 C223.7787,93.8709 223.9917,93.8409 224.1877,93.7809 L224.2487,94.7809 C223.9917,94.8869 223.5827,94.9779 223.0667,94.9779 C222.4457,94.9779 221.9457,94.7649 221.6277,94.4019 C221.2487,94.0079 221.1127,93.3569 221.1127,92.4919 L221.1127,88.4919 L219.9767,88.4919 L219.9767,87.4769 L221.1127,87.4769 L221.1127,86.1289 L222.4157,85.7199 Z" id="Fill-14" fill="#FFFFFF" mask="url(#mask-4)"></path>
            <path d="M225.8254,84.0529 L227.1584,84.0529 L227.1584,88.6289 L227.1894,88.6289 C227.4014,88.2499 227.7344,87.9159 228.1434,87.6899 C228.5374,87.4619 229.0074,87.3109 229.5074,87.3109 C230.4924,87.3109 232.0684,87.9159 232.0684,90.4469 L232.0684,94.8109 L230.7344,94.8109 L230.7344,90.5989 C230.7344,89.4159 230.2954,88.4159 229.0374,88.4159 C228.1744,88.4159 227.4924,89.0229 227.2494,89.7499 C227.1744,89.9319 227.1584,90.1289 227.1584,90.3859 L227.1584,94.8109 L225.8254,94.8109 L225.8254,84.0529 Z" id="Fill-15" fill="#FFFFFF" mask="url(#mask-4)"></path>
            <path d="M237.9343,87.4767 L239.5403,91.8107 C239.7073,92.2947 239.8893,92.8717 240.0103,93.3107 L240.0403,93.3107 C240.1773,92.8717 240.3283,92.3107 240.5103,91.7807 L241.9653,87.4767 L243.3743,87.4767 L241.3733,92.7047 C240.4193,95.2197 239.7673,96.5077 238.8583,97.2957 C238.2073,97.8717 237.5563,98.0987 237.2223,98.1597 L236.8893,97.0387 C237.2223,96.9317 237.6623,96.7197 238.0563,96.3867 C238.4193,96.0987 238.8733,95.5827 239.1773,94.9017 C239.2373,94.7647 239.2833,94.6597 239.2833,94.5827 C239.2833,94.5077 239.2523,94.4017 239.1923,94.2347 L236.4793,87.4767 L237.9343,87.4767 Z" id="Fill-16" fill="#FFFFFF" mask="url(#mask-4)"></path>
            <path d="M245.2541,91.1593 C245.2541,92.7643 246.1781,93.9773 247.4821,93.9773 C248.7541,93.9773 249.7091,92.7803 249.7091,91.1293 C249.7091,89.8863 249.0871,88.3103 247.5121,88.3103 C245.9361,88.3103 245.2541,89.7643 245.2541,91.1593 M251.0721,91.0833 C251.0721,93.7953 249.1931,94.9773 247.4211,94.9773 C245.4361,94.9773 243.9051,93.5223 243.9051,91.2043 C243.9051,88.7503 245.5121,87.3103 247.5421,87.3103 C249.6481,87.3103 251.0721,88.8413 251.0721,91.0833" id="Fill-17" fill="#FFFFFF" mask="url(#mask-4)"></path>
            <path d="M258.8928,92.8107 C258.8928,93.5687 258.9078,94.2347 258.9538,94.8107 L257.7718,94.8107 L257.6958,93.6137 L257.6648,93.6137 C257.3168,94.2047 256.5438,94.9777 255.2408,94.9777 C254.0898,94.9777 252.7108,94.3407 252.7108,91.7647 L252.7108,87.4767 L254.0438,87.4767 L254.0438,91.5387 C254.0438,92.9317 254.4688,93.8717 255.6808,93.8717 C256.5748,93.8717 257.1958,93.2497 257.4378,92.6597 C257.5138,92.4617 257.5598,92.2197 257.5598,91.9777 L257.5598,87.4767 L258.8928,87.4767 L258.8928,92.8107 Z" id="Fill-18" fill="#FFFFFF" mask="url(#mask-4)"></path>
            <path d="M144.1253,44.7978 L158.0683,44.7978 L158.0683,51.1628 L144.1253,51.1628 L144.1253,69.3488 C144.1253,69.3488 143.9733,71.3188 145.1863,72.0768 C146.8533,72.9868 150.3393,72.5318 150.9453,72.0768 C151.5513,71.6228 151.8543,70.7128 151.8543,69.8038 L151.8543,65.2568 L159.5833,65.2568 L159.5833,72.2288 C159.5833,72.2288 159.4323,77.5328 154.7343,78.1388 C150.0353,78.8968 142.0033,78.4418 142.0033,78.4418 C142.0033,78.4418 139.2753,78.2908 137.4573,77.2298 C136.0933,76.4718 135.6383,74.9568 135.6383,74.3498 L135.6383,51.0118 L130.6373,51.0118 L130.6373,44.4948 L135.3353,44.4948 L135.3353,36.9168 L143.9733,36.9168" id="Fill-19" fill="#FFFFFF" mask="url(#mask-4)"></path>
            <path d="M165.494,77.6845 L165.494,44.1915 L173.829,44.1915 L173.829,49.1925 L173.829,49.7995 L173.829,50.4055 C173.829,50.4055 174.587,47.5255 175.496,46.4645 C177.012,44.7975 179.588,44.1915 180.043,44.0405 C180.649,43.8885 181.558,43.7365 183.529,43.5855 L189.136,43.5855 C191.561,43.8885 191.712,43.8885 193.683,44.9495 C195.501,45.8585 198.078,48.7385 198.229,50.2535 C198.684,53.7395 198.229,77.9875 198.229,77.9875 L189.591,77.9875 L189.591,54.9515 C189.591,54.9515 189.591,52.5265 188.075,51.1625 C186.56,49.9505 185.196,49.7995 183.225,49.6475 C182.316,49.6475 179.74,49.4955 177.618,50.2535 C175.951,50.8595 174.435,52.2235 174.284,52.9815 C173.829,54.8005 173.678,55.8615 173.678,55.8615 C173.829,56.4675 173.981,77.8365 173.981,77.8365 L165.342,77.8365" id="Fill-20" fill="#FFFFFF" mask="url(#mask-4)"></path>
            <path d="M204.2912,44.0401 L212.7782,44.0401 L212.7782,49.3441 C212.7782,49.3441 213.9902,47.5261 215.2032,46.4651 C215.5062,46.1621 217.3242,44.9491 220.6592,44.4951 C223.5382,44.0401 227.7812,44.1921 229.6002,45.1011 C230.8122,45.7071 231.7222,46.1621 232.6312,46.7681 C234.2982,47.8291 235.3592,49.0411 235.6622,49.9511 C235.8142,50.2541 235.6622,50.1021 235.8142,49.9511 C236.1172,49.7991 237.0262,47.5261 238.9962,46.3131 C241.1182,44.9491 244.1492,44.6461 245.5132,44.6461 C248.0892,44.6461 253.6972,44.9491 255.5152,46.6161 C255.8182,46.9191 257.1822,47.8291 258.2432,49.3441 C259.1532,50.8601 259.4562,53.1331 259.4562,53.5881 L259.4562,78.7451 L250.9692,78.7451 L250.3632,78.7451 L250.3632,56.1641 C250.3632,56.1641 250.3632,51.3141 246.2712,50.8601 C242.0272,50.5571 239.2992,50.7081 237.9352,52.2241 C236.5722,53.8911 236.4202,55.1031 236.4202,55.5581 L236.4202,78.5941 L227.6302,78.5941 L227.6302,53.8911 C227.6302,53.8911 226.4182,50.5571 222.1742,50.2541 C220.5072,50.1021 218.8402,50.4051 217.3242,51.0111 C215.0512,52.0721 213.2332,54.0421 213.0812,54.4971 C212.3232,56.7701 212.4752,58.5891 212.4752,58.5891 L212.4752,78.2911 L203.9882,78.2911 L203.9882,44.9491 L203.9882,43.7371" id="Fill-21" fill="#FFFFFF" mask="url(#mask-4)"></path>
        </g>
    </g>
</svg>